<svg width="33" height="32" viewBox="0 0 33 32" fill="none" xmlns="http://www.w3.org/2000/svg">
<ellipse rx="3.69229" ry="3.69229" transform="matrix(-1 0 0 1 3.69443 28.3056)" fill="#EDEFF0"/>
<ellipse rx="3.69229" ry="3.69229" transform="matrix(-1 0 0 1 15.9991 15.997)" fill="#EDEFF0"/>
<ellipse rx="3.69229" ry="3.69229" transform="matrix(-1 0 0 1 28.3077 28.3056)" fill="#EDEFF0"/>
<circle r="3.69229" transform="matrix(-1 0 0 1 15.9991 28.3056)" fill="#EDEFF0"/>
<ellipse rx="3.69229" ry="3.69229" transform="matrix(-1 0 0 1 28.3077 15.997)" fill="#EDEFF0"/>
<ellipse rx="3.69229" ry="3.69229" transform="matrix(-1 0 0 1 3.69443 3.69229)" fill="#EDEFF0"/>
<ellipse rx="3.69229" ry="3.69229" transform="matrix(-1 0 0 1 15.9991 3.69229)" fill="#EDEFF0"/>
<ellipse rx="3.69229" ry="3.69229" transform="matrix(-1 0 0 1 28.3077 3.69229)" fill="#EDEFF0"/>
</svg>
